<svg xmlns="http://www.w3.org/2000/svg" width="1024" height="1024" viewBox="0 0 1024 1024" fill="none">
  <defs>
    <!-- Cyan Gradient cho chữ K: Sáng tươi, rực rỡ chuẩn bản sắc KomfyEdit -->
    <linearGradient id="kBodyGrad" x1="0" y1="0" x2="0" y2="1">
      <stop offset="0%" stop-color="#00F2FE"/>
      <stop offset="50%" stop-color="#18E2DC"/>
      <stop offset="100%" stop-color="#10BFBF"/>
    </linearGradient>

    <!-- Điểm nhấn trắng ngọc ở tâm -->
    <linearGradient id="kAccentGrad" x1="0" y1="0" x2="1" y2="1">
      <stop offset="0%" stop-color="#FFFFFF"/>
      <stop offset="100%" stop-color="#E2FBF8"/>
    </linearGradient>
  </defs>

  <!-- Nền Squircle xám đen than chì phẳng trơn chuẩn desktop app (#131315) -->
  <rect width="1024" height="1024" rx="224" ry="224" fill="#131315"/>

  <!-- Nhóm Chữ K Lớn -->
  <g id="komfyedit-brand-k">
    <!-- 1. Thân đứng bên trái: bo tròn lớn góc trên-trái và dưới-trái, rãnh cắt chevron ở mép phải -->
    <path d="
      M 432 186
      L 326 186
      C 252 186 200 238 200 312
      L 200 712
      C 200 786 252 838 326 838
      L 432 838
      L 432 616
      L 342 512
      L 432 408
      Z
    " fill="url(#kBodyGrad)"/>

    <!-- 2. Nhánh chéo trên: hướng lên trên-phải, bo tròn góc ngoài -->
    <path d="
      M 432 408
      L 674 186
      L 776 186
      C 804 186 824 206 824 234
      L 824 246
      C 824 266 812 286 794 302
      L 548 616
      L 432 512
      Z
    " fill="url(#kBodyGrad)"/>

    <!-- 3. Nhánh chéo dưới: vát ngang đáy phẳng song song với trục dưới, bo tròn góc ngoài -->
    <path d="
      M 432 512
      L 548 616
      L 720 786
      C 736 802 744 822 744 834
      L 744 838
      L 620 838
      C 600 838 580 828 566 814
      L 432 676
      Z
    " fill="url(#kBodyGrad)"/>

    <!-- 4. Điểm nhấn Trắng Ngọc (Crisp White Accent) hình cánh cung/tam giác ở tâm rãnh cắt -->
    <path d="
      M 432 408
      L 342 512
      L 432 616
      C 472 580 472 444 432 408
      Z
    " fill="url(#kAccentGrad)"/>
  </g>
</svg>